<svg width="20" height="20" viewBox="0 0 20 20" fill="none" xmlns="http://www.w3.org/2000/svg">
<g clip-path="url(#clip0_388_935)">
<path d="M17.5585 2.38982H2.44569C1.09663 2.38982 0 3.48645 0 4.83551V15.1645C0 16.5136 1.09663 17.6102 2.44569 17.6102H17.5543C18.9034 17.6102 20 16.5136 20 15.1645V4.83964C20.0041 3.49059 18.9075 2.38982 17.5585 2.38982ZM18.8868 15.1645C18.8868 15.897 18.2909 16.4929 17.5585 16.4929H2.44569C1.71322 16.4929 1.11732 15.897 1.11732 15.1645V4.83964C1.11732 4.10718 1.71322 3.51128 2.44569 3.51128H17.5543C18.2868 3.51128 18.8827 4.10718 18.8827 4.83964V15.1645H18.8868Z" fill="white"/>
<path d="M12.6108 9.87172L17.5022 5.48521C17.7298 5.2783 17.7505 4.92655 17.5436 4.69481C17.3367 4.46721 16.9849 4.44651 16.7532 4.65342L10.0079 10.7076L8.69193 9.53238C8.68779 9.52824 8.68365 9.52411 8.68365 9.51997C8.65468 9.491 8.62571 9.46617 8.59261 9.44134L3.23776 4.64929C3.00602 4.44238 2.65427 4.46307 2.44736 4.69481C2.24045 4.92655 2.26114 5.2783 2.49288 5.48521L7.44218 9.90896L2.51357 14.5231C2.29011 14.7341 2.27769 15.0859 2.48874 15.3135C2.60047 15.4293 2.74945 15.4914 2.89842 15.4914C3.03498 15.4914 3.17155 15.4418 3.27914 15.3424L8.28224 10.6621L9.63958 11.8746C9.74717 11.9698 9.87959 12.0153 10.012 12.0153C10.1444 12.0153 10.281 11.9657 10.3845 11.8705L11.779 10.6207L16.7532 15.3466C16.8608 15.45 17.0015 15.4997 17.138 15.4997C17.287 15.4997 17.4318 15.4418 17.5436 15.3259C17.7546 15.1024 17.7463 14.7465 17.5229 14.5355L12.6108 9.87172Z" fill="white"/>
</g>
<defs>
<clipPath id="clip0_388_935">
<rect width="20" height="20" fill="white"/>
</clipPath>
</defs>
</svg>
